<svg width="20" height="20" viewBox="0 0 20 20" fill="none" xmlns="http://www.w3.org/2000/svg">
<g clip-path="url(#clip0_3436_47)">
<path d="M17.4308 0.537231C18.5354 0.537231 19.4308 1.43266 19.4308 2.53723V14.6755L19.3776 14.7287L19.3244 14.6755L14.8138 19.3564L14.867 19.4043L14.8138 19.4628H2.56909C1.46452 19.4628 0.569092 18.5673 0.569092 17.4628V2.53723C0.569092 1.43266 1.46452 0.537231 2.56909 0.537231H17.4308Z" fill="#6F7997"/>
<path d="M19.3777 14.7287L14.867 19.4043L14.8138 19.3564V16.6755C14.8138 15.571 15.7093 14.6755 16.8138 14.6755H19.3245L19.3777 14.7287Z" fill="#99A7D1"/>
<path d="M3.84576 9.30846H15.8245C16.117 9.30846 16.3564 9.0691 16.3564 8.77654C16.3564 8.48399 16.117 8.24463 15.8245 8.24463H3.84576C3.5532 8.24463 3.31384 8.48399 3.31384 8.77654C3.31384 9.0691 3.5532 9.30846 3.84576 9.30846Z" fill="white"/>
<path d="M3.84576 5.90428H10.9096C11.2021 5.90428 11.4415 5.66492 11.4415 5.37237C11.4415 5.07982 11.2021 4.84045 10.9096 4.84045H3.84576C3.5532 4.84045 3.31384 5.07982 3.31384 5.37237C3.31384 5.66492 3.5532 5.90428 3.84576 5.90428Z" fill="white"/>
<path d="M3.84576 12.6064H15.8245C16.117 12.6064 16.3564 12.3671 16.3564 12.0745C16.3564 11.782 16.117 11.5426 15.8245 11.5426H3.84576C3.5532 11.5426 3.31384 11.782 3.31384 12.0745C3.31384 12.3671 3.5532 12.6064 3.84576 12.6064Z" fill="white"/>
</g>
<defs>
<clipPath id="clip0_3436_47">
<rect width="20" height="20" fill="white"/>
</clipPath>
</defs>
</svg>
