<svg width="22" height="22" viewBox="0 0 22 22" fill="none" xmlns="http://www.w3.org/2000/svg">
<path d="M8.95834 0.5C4.30074 0.5 0.5 4.30075 0.5 8.95834C0.5 13.6159 4.30074 17.4167 8.95834 17.4167C10.8677 17.4167 12.6269 16.7709 14.0454 15.6963L19.5085 21.1582C19.616 21.2702 19.7447 21.3596 19.8872 21.4212C20.0297 21.4827 20.183 21.5153 20.3383 21.5169C20.4935 21.5184 20.6474 21.489 20.7911 21.4304C20.9349 21.3717 21.0654 21.2849 21.1752 21.1752C21.2849 21.0654 21.3717 20.9349 21.4304 20.7911C21.489 20.6474 21.5184 20.4935 21.5169 20.3383C21.5153 20.183 21.4827 20.0297 21.4212 19.8872C21.3596 19.7447 21.2702 19.616 21.1582 19.5085L15.6963 14.0454C16.7709 12.6269 17.4167 10.8677 17.4167 8.95834C17.4167 4.30075 13.6159 0.5 8.95834 0.5ZM8.95834 2.83333C12.3549 2.83333 15.0833 5.56177 15.0833 8.95834C15.0833 10.5892 14.4499 12.062 13.4199 13.1567C13.3197 13.2293 13.2316 13.3174 13.159 13.4176C12.0641 14.4489 10.5903 15.0833 8.95834 15.0833C5.56177 15.0833 2.83333 12.3549 2.83333 8.95834C2.83333 5.56177 5.56177 2.83333 8.95834 2.83333Z" fill="#6F7997"/>
</svg>
